<svg width="848" height="1080" viewBox="0 0 848 1080" fill="none" xmlns="http://www.w3.org/2000/svg">
<path fill-rule="evenodd" clip-rule="evenodd" d="M0 0H848V314.621H819.478V323.217H848V333.533H819.478V342.129H848V352.444H819.478V361.041H848V402.302H819.478V410.899H848V421.214H819.478V429.81H848V440.126H819.478V448.722H848V1080H349.751C363.133 1050.5 371.008 1019.34 371.008 986.543C371.008 974.571 369.961 962.299 367.716 949.728C349.608 849.757 250.984 763.554 225.992 753.827L231.978 764.602C235.57 772.234 237.066 780.914 237.066 790.193C237.066 845.118 182.388 922.035 160.829 952.362C156.13 958.973 153.004 963.37 152.361 964.843C149.069 972.476 147.572 980.557 147.572 988.489C147.572 1018.57 170.32 1051.49 174.361 1051.49C177.952 1051.49 259.066 968.584 261.311 920.245C270.889 937.755 274.929 954.068 274.929 970.231C274.929 1006.43 253.372 1050.1 235.567 1080H86.4647C71.7669 1057.89 60.4728 1035.24 60.4728 1008.09C60.4728 954.07 98.1051 909.034 136.555 863.019C176.712 814.961 217.761 765.835 217.761 704.29C217.761 633.802 166.878 572.592 159.246 569C159.844 573.939 160.143 579.027 160.143 583.966C160.143 649.106 110.975 704.118 59.1116 762.145C38.9001 784.758 18.2794 807.83 0 832.137V0ZM393.14 314.621V545H401.736V314.621H393.14ZM355.317 314.621V545H363.913V314.621H355.317ZM374.228 314.621V545H382.824V314.621H374.228ZM412.052 314.621V323.217H526.382V314.621H412.052ZM412.052 333.533V342.129H526.382V333.533H412.052ZM412.052 352.444V361.041H526.382V352.444H412.052ZM412.052 406.601V415.197H510.049V406.601H412.052ZM412.052 425.512V434.109H510.049V425.512H412.052ZM412.052 444.424V453.02H510.049V444.424H412.052ZM412.052 498.58V507.177H526.382V498.58H412.052ZM412.052 517.492V526.088H526.382V517.492H412.052ZM412.052 536.404V545H526.382V536.404H412.052ZM587.059 314.621V545H595.655V314.621H587.059ZM549.236 314.621V545H557.832V314.621H549.236ZM568.147 314.621V545H576.744V314.621H568.147ZM673.308 440.126H605.971V448.722H673.308C685.725 448.722 696.995 445.952 707.12 440.412C717.435 434.682 725.554 426.849 731.476 416.916C737.589 406.792 740.645 395.043 740.645 381.671C740.645 368.3 737.589 356.647 731.476 346.713C725.554 336.589 717.435 328.757 707.12 323.217C696.995 317.486 685.725 314.621 673.308 314.621H605.971V323.217H673.308C684.196 323.217 694.034 325.605 702.822 330.381C711.8 335.156 718.868 341.938 724.026 350.725C729.374 359.512 732.049 369.828 732.049 381.671C732.049 393.515 729.374 403.831 724.026 412.618C718.868 421.405 711.8 428.187 702.822 432.962C694.034 437.738 684.196 440.126 673.308 440.126ZM605.971 421.214V429.81H673.308C682.286 429.81 690.405 427.9 697.664 424.08C704.923 420.068 710.749 414.528 715.143 407.46C719.537 400.201 721.733 391.605 721.733 381.671C721.733 371.738 719.537 363.237 715.143 356.169C710.749 348.91 704.923 343.37 697.664 339.55C690.405 335.538 682.286 333.533 673.308 333.533H605.971V342.129H673.308C684.388 342.129 693.748 345.663 701.389 352.731C709.221 359.608 713.137 369.255 713.137 381.671C713.137 394.088 709.221 403.831 701.389 410.899C693.748 417.776 684.388 421.214 673.308 421.214H605.971ZM605.971 402.302V410.899H673.308C681.522 410.899 688.495 408.415 694.225 403.449C699.956 398.482 702.822 391.223 702.822 381.671C702.822 372.12 699.956 364.861 694.225 359.894C688.495 354.928 681.522 352.444 673.308 352.444H605.971V361.041H673.308C679.039 361.041 683.91 362.664 687.922 365.912C692.124 369.159 694.225 374.412 694.225 381.671C694.225 388.74 692.124 393.993 687.922 397.431C683.91 400.679 679.039 402.302 673.308 402.302H605.971ZM688.495 456.459L728.897 545H738.353L696.804 454.453C695.467 455.026 694.034 455.504 692.506 455.886L688.495 456.459ZM668.15 458.465L707.979 545H717.435L677.606 457.891C676.078 458.082 674.454 458.274 672.735 458.465H668.15ZM647.519 458.751L687.062 545H696.518L656.975 458.751H647.519ZM809.162 314.621H800.566V545H809.162V314.621ZM771.339 314.621H762.742V545H771.339V314.621ZM790.25 314.621H781.654V545H790.25V314.621Z" fill="url(#paint0_linear_17_358)"/>
<path fill-rule="evenodd" clip-rule="evenodd" d="M0 0H848V314.621H819.478V323.217H848V333.533H819.478V342.129H848V352.444H819.478V361.041H848V402.302H819.478V410.899H848V421.214H819.478V429.81H848V440.126H819.478V448.722H848V1080H349.751C363.133 1050.5 371.008 1019.34 371.008 986.543C371.008 974.571 369.961 962.299 367.716 949.728C349.608 849.757 250.984 763.554 225.992 753.827L231.978 764.602C235.57 772.234 237.066 780.914 237.066 790.193C237.066 845.118 182.388 922.035 160.829 952.362C156.13 958.973 153.004 963.37 152.361 964.843C149.069 972.476 147.572 980.557 147.572 988.489C147.572 1018.57 170.32 1051.49 174.361 1051.49C177.952 1051.49 259.066 968.584 261.311 920.245C270.889 937.755 274.929 954.068 274.929 970.231C274.929 1006.43 253.372 1050.1 235.567 1080H86.4647C71.7669 1057.89 60.4728 1035.24 60.4728 1008.09C60.4728 954.07 98.1051 909.034 136.555 863.019C176.712 814.961 217.761 765.835 217.761 704.29C217.761 633.802 166.878 572.592 159.246 569C159.844 573.939 160.143 579.027 160.143 583.966C160.143 649.106 110.975 704.118 59.1116 762.145C38.9001 784.758 18.2794 807.83 0 832.137V0ZM393.14 314.621V545H401.736V314.621H393.14ZM355.317 314.621V545H363.913V314.621H355.317ZM374.228 314.621V545H382.824V314.621H374.228ZM412.052 314.621V323.217H526.382V314.621H412.052ZM412.052 333.533V342.129H526.382V333.533H412.052ZM412.052 352.444V361.041H526.382V352.444H412.052ZM412.052 406.601V415.197H510.049V406.601H412.052ZM412.052 425.512V434.109H510.049V425.512H412.052ZM412.052 444.424V453.02H510.049V444.424H412.052ZM412.052 498.58V507.177H526.382V498.58H412.052ZM412.052 517.492V526.088H526.382V517.492H412.052ZM412.052 536.404V545H526.382V536.404H412.052ZM587.059 314.621V545H595.655V314.621H587.059ZM549.236 314.621V545H557.832V314.621H549.236ZM568.147 314.621V545H576.744V314.621H568.147ZM673.308 440.126H605.971V448.722H673.308C685.725 448.722 696.995 445.952 707.12 440.412C717.435 434.682 725.554 426.849 731.476 416.916C737.589 406.792 740.645 395.043 740.645 381.671C740.645 368.3 737.589 356.647 731.476 346.713C725.554 336.589 717.435 328.757 707.12 323.217C696.995 317.486 685.725 314.621 673.308 314.621H605.971V323.217H673.308C684.196 323.217 694.034 325.605 702.822 330.381C711.8 335.156 718.868 341.938 724.026 350.725C729.374 359.512 732.049 369.828 732.049 381.671C732.049 393.515 729.374 403.831 724.026 412.618C718.868 421.405 711.8 428.187 702.822 432.962C694.034 437.738 684.196 440.126 673.308 440.126ZM605.971 421.214V429.81H673.308C682.286 429.81 690.405 427.9 697.664 424.08C704.923 420.068 710.749 414.528 715.143 407.46C719.537 400.201 721.733 391.605 721.733 381.671C721.733 371.738 719.537 363.237 715.143 356.169C710.749 348.91 704.923 343.37 697.664 339.55C690.405 335.538 682.286 333.533 673.308 333.533H605.971V342.129H673.308C684.388 342.129 693.748 345.663 701.389 352.731C709.221 359.608 713.137 369.255 713.137 381.671C713.137 394.088 709.221 403.831 701.389 410.899C693.748 417.776 684.388 421.214 673.308 421.214H605.971ZM605.971 402.302V410.899H673.308C681.522 410.899 688.495 408.415 694.225 403.449C699.956 398.482 702.822 391.223 702.822 381.671C702.822 372.12 699.956 364.861 694.225 359.894C688.495 354.928 681.522 352.444 673.308 352.444H605.971V361.041H673.308C679.039 361.041 683.91 362.664 687.922 365.912C692.124 369.159 694.225 374.412 694.225 381.671C694.225 388.74 692.124 393.993 687.922 397.431C683.91 400.679 679.039 402.302 673.308 402.302H605.971ZM688.495 456.459L728.897 545H738.353L696.804 454.453C695.467 455.026 694.034 455.504 692.506 455.886L688.495 456.459ZM668.15 458.465L707.979 545H717.435L677.606 457.891C676.078 458.082 674.454 458.274 672.735 458.465H668.15ZM647.519 458.751L687.062 545H696.518L656.975 458.751H647.519ZM809.162 314.621H800.566V545H809.162V314.621ZM771.339 314.621H762.742V545H771.339V314.621ZM790.25 314.621H781.654V545H790.25V314.621Z" fill="url(#paint1_linear_17_358)"/>
<defs>
<linearGradient id="paint0_linear_17_358" x1="424" y1="297.991" x2="424" y2="1079.04" gradientUnits="userSpaceOnUse">
<stop stop-color="#8000FF"/>
<stop offset="1" stop-color="#09006C"/>
</linearGradient>
<linearGradient id="paint1_linear_17_358" x1="424" y1="-138.017" x2="424" y2="981.802" gradientUnits="userSpaceOnUse">
<stop stop-color="#D30808"/>
<stop offset="1" stop-color="#FF6B00"/>
</linearGradient>
</defs>
</svg>
