<svg width="848" height="1080" viewBox="0 0 848 1080" fill="none" xmlns="http://www.w3.org/2000/svg">
<path fill-rule="evenodd" clip-rule="evenodd" d="M0 0H848V1080H349.751C363.133 1050.5 371.008 1019.34 371.008 986.543C371.008 974.571 369.961 962.299 367.716 949.728C349.608 849.757 250.984 763.554 225.992 753.827L231.978 764.602C235.57 772.234 237.066 780.914 237.066 790.193C237.066 845.118 182.388 922.035 160.829 952.362C156.13 958.973 153.004 963.37 152.361 964.843C149.069 972.476 147.572 980.557 147.572 988.489C147.572 1018.57 170.32 1051.49 174.361 1051.49C177.952 1051.49 259.066 968.584 261.311 920.245C270.889 937.755 274.929 954.068 274.929 970.231C274.929 1006.43 253.372 1050.1 235.567 1080H86.4647C71.7669 1057.89 60.4728 1035.24 60.4728 1008.09C60.4728 954.07 98.1051 909.034 136.555 863.019C176.712 814.961 217.761 765.835 217.761 704.29C217.761 633.802 166.878 572.592 159.246 569C159.844 573.939 160.143 579.027 160.143 583.966C160.143 649.106 110.975 704.118 59.1116 762.145C38.9001 784.758 18.2794 807.83 0 832.137V0ZM280.151 231.621V462H288.747V231.621H280.151ZM242.327 231.621V462H250.923V231.621H242.327ZM261.239 231.621V462H269.835V231.621H261.239ZM299.062 231.621V240.217H413.392V231.621H299.062ZM299.062 250.533V259.129H413.392V250.533H299.062ZM299.062 269.444V278.041H413.392V269.444H299.062ZM299.062 323.601V332.197H397.059V323.601H299.062ZM299.062 342.512V351.109H397.059V342.512H299.062ZM299.062 361.424V370.02H397.059V361.424H299.062ZM299.062 415.58V424.177H413.392V415.58H299.062ZM299.062 434.492V443.088H413.392V434.492H299.062ZM299.062 453.404V462H413.392V453.404H299.062ZM474.07 231.621V462H482.666V231.621H474.07ZM436.246 231.621V462H444.842V231.621H436.246ZM455.158 231.621V462H463.754V231.621H455.158ZM560.318 357.126H492.981V365.722H560.318C572.735 365.722 584.006 362.952 594.13 357.412C604.446 351.682 612.564 343.849 618.486 333.916C624.599 323.792 627.656 312.043 627.656 298.671C627.656 285.3 624.599 273.647 618.486 263.713C612.564 253.589 604.446 245.757 594.13 240.217C584.006 234.486 572.735 231.621 560.318 231.621H492.981V240.217H560.318C571.207 240.217 581.045 242.605 589.832 247.381C598.81 252.156 605.878 258.938 611.036 267.725C616.385 276.512 619.059 286.828 619.059 298.671C619.059 310.515 616.385 320.831 611.036 329.618C605.878 338.405 598.81 345.187 589.832 349.962C581.045 354.738 571.207 357.126 560.318 357.126ZM492.981 338.214V346.81H560.318C569.297 346.81 577.415 344.9 584.674 341.08C591.933 337.068 597.76 331.528 602.153 324.46C606.547 317.201 608.744 308.605 608.744 298.671C608.744 288.738 606.547 280.237 602.153 273.169C597.76 265.91 591.933 260.37 584.674 256.55C577.415 252.538 569.297 250.533 560.318 250.533H492.981V259.129H560.318C571.398 259.129 580.758 262.663 588.399 269.731C596.232 276.608 600.148 286.255 600.148 298.671C600.148 311.088 596.232 320.831 588.399 327.899C580.758 334.776 571.398 338.214 560.318 338.214H492.981ZM492.981 319.302V327.899H560.318C568.533 327.899 575.505 325.415 581.236 320.449C586.967 315.482 589.832 308.223 589.832 298.671C589.832 289.12 586.967 281.861 581.236 276.894C575.505 271.928 568.533 269.444 560.318 269.444H492.981V278.041H560.318C566.049 278.041 570.92 279.664 574.932 282.912C579.135 286.159 581.236 291.412 581.236 298.671C581.236 305.74 579.135 310.993 574.932 314.431C570.92 317.679 566.049 319.302 560.318 319.302H492.981ZM575.505 373.459L615.907 462H625.363L583.815 371.453C582.478 372.026 581.045 372.504 579.517 372.886L575.505 373.459ZM555.161 375.465L594.99 462H604.446L564.617 374.891C563.088 375.082 561.465 375.274 559.745 375.465H555.161ZM534.53 375.751L574.072 462H583.528L543.986 375.751H534.53ZM696.173 231.621H687.576V462H696.173V231.621ZM658.349 231.621H649.753V462H658.349V231.621ZM677.261 231.621H668.665V462H677.261V231.621ZM773.825 357.126H706.488V365.722H773.825C786.242 365.722 797.513 362.952 807.637 357.412C817.953 351.682 826.071 343.849 831.993 333.916C838.106 323.792 841.162 312.043 841.162 298.671C841.162 285.3 838.106 273.647 831.993 263.713C826.071 253.589 817.953 245.757 807.637 240.217C797.513 234.486 786.242 231.621 773.825 231.621H706.488V240.217H773.825C784.714 240.217 794.552 242.605 803.339 247.381C812.317 252.156 819.385 258.938 824.543 267.725C829.892 276.512 832.566 286.828 832.566 298.671C832.566 310.515 829.892 320.831 824.543 329.618C819.385 338.405 812.317 345.187 803.339 349.962C794.552 354.738 784.714 357.126 773.825 357.126ZM706.488 338.214V346.81H773.825C782.804 346.81 790.922 344.9 798.181 341.08C805.44 337.068 811.267 331.528 815.66 324.46C820.054 317.201 822.251 308.605 822.251 298.671C822.251 288.738 820.054 280.237 815.66 273.169C811.267 265.91 805.44 260.37 798.181 256.55C790.922 252.538 782.804 250.533 773.825 250.533H706.488V259.129H773.825C784.905 259.129 794.265 262.663 801.906 269.731C809.738 276.608 813.654 286.255 813.654 298.671C813.654 311.088 809.738 320.831 801.906 327.899C794.265 334.776 784.905 338.214 773.825 338.214H706.488ZM706.488 319.302V327.899H773.825C782.039 327.899 789.012 325.415 794.743 320.449C800.474 315.482 803.339 308.223 803.339 298.671C803.339 289.12 800.474 281.861 794.743 276.894C789.012 271.928 782.039 269.444 773.825 269.444H706.488V278.041H773.825C779.556 278.041 784.427 279.664 788.439 282.912C792.641 286.159 794.743 291.412 794.743 298.671C794.743 305.74 792.641 310.993 788.439 314.431C784.427 317.679 779.556 319.302 773.825 319.302H706.488Z" fill="url(#paint0_linear_17_358)"/>
<path fill-rule="evenodd" clip-rule="evenodd" d="M0 0H848V1080H349.751C363.133 1050.5 371.008 1019.34 371.008 986.543C371.008 974.571 369.961 962.299 367.716 949.728C349.608 849.757 250.984 763.554 225.992 753.827L231.978 764.602C235.57 772.234 237.066 780.914 237.066 790.193C237.066 845.118 182.388 922.035 160.829 952.362C156.13 958.973 153.004 963.37 152.361 964.843C149.069 972.476 147.572 980.557 147.572 988.489C147.572 1018.57 170.32 1051.49 174.361 1051.49C177.952 1051.49 259.066 968.584 261.311 920.245C270.889 937.755 274.929 954.068 274.929 970.231C274.929 1006.43 253.372 1050.1 235.567 1080H86.4647C71.7669 1057.89 60.4728 1035.24 60.4728 1008.09C60.4728 954.07 98.1051 909.034 136.555 863.019C176.712 814.961 217.761 765.835 217.761 704.29C217.761 633.802 166.878 572.592 159.246 569C159.844 573.939 160.143 579.027 160.143 583.966C160.143 649.106 110.975 704.118 59.1116 762.145C38.9001 784.758 18.2794 807.83 0 832.137V0ZM280.151 231.621V462H288.747V231.621H280.151ZM242.327 231.621V462H250.923V231.621H242.327ZM261.239 231.621V462H269.835V231.621H261.239ZM299.062 231.621V240.217H413.392V231.621H299.062ZM299.062 250.533V259.129H413.392V250.533H299.062ZM299.062 269.444V278.041H413.392V269.444H299.062ZM299.062 323.601V332.197H397.059V323.601H299.062ZM299.062 342.512V351.109H397.059V342.512H299.062ZM299.062 361.424V370.02H397.059V361.424H299.062ZM299.062 415.58V424.177H413.392V415.58H299.062ZM299.062 434.492V443.088H413.392V434.492H299.062ZM299.062 453.404V462H413.392V453.404H299.062ZM474.07 231.621V462H482.666V231.621H474.07ZM436.246 231.621V462H444.842V231.621H436.246ZM455.158 231.621V462H463.754V231.621H455.158ZM560.318 357.126H492.981V365.722H560.318C572.735 365.722 584.006 362.952 594.13 357.412C604.446 351.682 612.564 343.849 618.486 333.916C624.599 323.792 627.656 312.043 627.656 298.671C627.656 285.3 624.599 273.647 618.486 263.713C612.564 253.589 604.446 245.757 594.13 240.217C584.006 234.486 572.735 231.621 560.318 231.621H492.981V240.217H560.318C571.207 240.217 581.045 242.605 589.832 247.381C598.81 252.156 605.878 258.938 611.036 267.725C616.385 276.512 619.059 286.828 619.059 298.671C619.059 310.515 616.385 320.831 611.036 329.618C605.878 338.405 598.81 345.187 589.832 349.962C581.045 354.738 571.207 357.126 560.318 357.126ZM492.981 338.214V346.81H560.318C569.297 346.81 577.415 344.9 584.674 341.08C591.933 337.068 597.76 331.528 602.153 324.46C606.547 317.201 608.744 308.605 608.744 298.671C608.744 288.738 606.547 280.237 602.153 273.169C597.76 265.91 591.933 260.37 584.674 256.55C577.415 252.538 569.297 250.533 560.318 250.533H492.981V259.129H560.318C571.398 259.129 580.758 262.663 588.399 269.731C596.232 276.608 600.148 286.255 600.148 298.671C600.148 311.088 596.232 320.831 588.399 327.899C580.758 334.776 571.398 338.214 560.318 338.214H492.981ZM492.981 319.302V327.899H560.318C568.533 327.899 575.505 325.415 581.236 320.449C586.967 315.482 589.832 308.223 589.832 298.671C589.832 289.12 586.967 281.861 581.236 276.894C575.505 271.928 568.533 269.444 560.318 269.444H492.981V278.041H560.318C566.049 278.041 570.92 279.664 574.932 282.912C579.135 286.159 581.236 291.412 581.236 298.671C581.236 305.74 579.135 310.993 574.932 314.431C570.92 317.679 566.049 319.302 560.318 319.302H492.981ZM575.505 373.459L615.907 462H625.363L583.815 371.453C582.478 372.026 581.045 372.504 579.517 372.886L575.505 373.459ZM555.161 375.465L594.99 462H604.446L564.617 374.891C563.088 375.082 561.465 375.274 559.745 375.465H555.161ZM534.53 375.751L574.072 462H583.528L543.986 375.751H534.53ZM696.173 231.621H687.576V462H696.173V231.621ZM658.349 231.621H649.753V462H658.349V231.621ZM677.261 231.621H668.665V462H677.261V231.621ZM773.825 357.126H706.488V365.722H773.825C786.242 365.722 797.513 362.952 807.637 357.412C817.953 351.682 826.071 343.849 831.993 333.916C838.106 323.792 841.162 312.043 841.162 298.671C841.162 285.3 838.106 273.647 831.993 263.713C826.071 253.589 817.953 245.757 807.637 240.217C797.513 234.486 786.242 231.621 773.825 231.621H706.488V240.217H773.825C784.714 240.217 794.552 242.605 803.339 247.381C812.317 252.156 819.385 258.938 824.543 267.725C829.892 276.512 832.566 286.828 832.566 298.671C832.566 310.515 829.892 320.831 824.543 329.618C819.385 338.405 812.317 345.187 803.339 349.962C794.552 354.738 784.714 357.126 773.825 357.126ZM706.488 338.214V346.81H773.825C782.804 346.81 790.922 344.9 798.181 341.08C805.44 337.068 811.267 331.528 815.66 324.46C820.054 317.201 822.251 308.605 822.251 298.671C822.251 288.738 820.054 280.237 815.66 273.169C811.267 265.91 805.44 260.37 798.181 256.55C790.922 252.538 782.804 250.533 773.825 250.533H706.488V259.129H773.825C784.905 259.129 794.265 262.663 801.906 269.731C809.738 276.608 813.654 286.255 813.654 298.671C813.654 311.088 809.738 320.831 801.906 327.899C794.265 334.776 784.905 338.214 773.825 338.214H706.488ZM706.488 319.302V327.899H773.825C782.039 327.899 789.012 325.415 794.743 320.449C800.474 315.482 803.339 308.223 803.339 298.671C803.339 289.12 800.474 281.861 794.743 276.894C789.012 271.928 782.039 269.444 773.825 269.444H706.488V278.041H773.825C779.556 278.041 784.427 279.664 788.439 282.912C792.641 286.159 794.743 291.412 794.743 298.671C794.743 305.74 792.641 310.993 788.439 314.431C784.427 317.679 779.556 319.302 773.825 319.302H706.488Z" fill="url(#paint1_linear_17_358)"/>
<defs>
<linearGradient id="paint0_linear_17_358" x1="424" y1="297.991" x2="424" y2="1079.04" gradientUnits="userSpaceOnUse">
<stop stop-color="#8000FF"/>
<stop offset="1" stop-color="#09006C"/>
</linearGradient>
<linearGradient id="paint1_linear_17_358" x1="424" y1="-138.017" x2="424" y2="981.802" gradientUnits="userSpaceOnUse">
<stop stop-color="#D30808"/>
<stop offset="1" stop-color="#FF6B00"/>
</linearGradient>
</defs>
</svg>
